<svg xmlns="http://www.w3.org/2000/svg" width="78.832" height="90.775" viewBox="0 0 78.832 90.775">
  <g id="blue-doctor" transform="translate(-10.584 -2.656)">
    <ellipse id="Ellipse_21" data-name="Ellipse 21" cx="19.275" cy="19.275" rx="19.275" ry="19.275" transform="translate(26.813 11.513) rotate(-13.282)" fill="#f6dcb2"/>
    <path id="Path_11674" data-name="Path 11674" d="M74.184,47.632A9.392,9.392,0,0,0,69.477,46.3a9.5,9.5,0,0,0-6.53,2.585c-3.563,3.249-6.416,5.5-12.948,5.5s-9.5-2.318-12.9-5.476a9.333,9.333,0,0,0-5.667-2.591,9.564,9.564,0,0,0-5.621,1.311c-5.044,3.08-15.232,12.56-15.232,38.881,0,1.038.016,2.039.045,3.012a4.041,4.041,0,0,0,4.048,3.907H85.322a4.041,4.041,0,0,0,4.048-3.907c.029-.972.045-1.974.045-3.012C89.415,60.192,79.228,50.713,74.184,47.632ZM72.425,76.554H67.567v4.858H61.321V76.554H56.463V70.308h4.858V65.45h6.246v4.858h4.858v6.246Z" fill="#1f3f6c"/>
  </g>
</svg>
