<svg xmlns="http://www.w3.org/2000/svg" xmlns:xlink="http://www.w3.org/1999/xlink" width="1080" height="1080" viewBox="0 0 1080 1080">
  <defs>
    <clipPath id="clip-path">
      <rect id="Rectangle_18767" data-name="Rectangle 18767" width="1080" height="1080"/>
    </clipPath>
    <linearGradient id="linear-gradient" x1="0.179" y1="1.018" x2="0.675" y2="-0.006" gradientUnits="objectBoundingBox">
      <stop offset="0.15" stop-color="#1a406d"/>
      <stop offset="0.83" stop-color="#2e7ac5"/>
    </linearGradient>
  </defs>
  <g id="Associated_Healer" data-name="Associated Healer" clip-path="url(#clip-path)">
    <rect id="Rectangle_18766" data-name="Rectangle 18766" width="1080" height="1080" fill="rgba(255,255,255,0)"/>
    <g id="Associated_Healer-2" data-name="Associated Healer" transform="translate(-96.69 -78.825)">
      <path id="Union_1" data-name="Union 1" d="M5.326,245.653c-5.289-16.312-6.336-34-4.465-50.185q.362-3.23.889-6.316c2.608-15.68,7.938-29.476,14.68-38.536A116.425,116.425,0,0,1,26.618,138.7c18.514-19.85,42.3-29.683,56.082-34.027,33-11.363,64.676-12.084,75.347-14.1,52.2-9.836,154.542-6.729,218.115-22.774,6.337-1.6,26.358-8.8,34.629-15.009,11.063-8.309,16.086-17.07,14.9-24.608-2.6-11.1-17.506-15.438-17.506-15.438a108.234,108.234,0,0,0-32.677-4.255c-18.563.386-62.652-2.127-62.652-2.127H292.164l2.129-4.707h19.853L375.507.5l.142-.006V.023l2.069-.018c52.6-.408,68.527,26.239,50.578,50.214a60.992,60.992,0,0,1-13.988,13.712c-24.234,17.662-80.055,25.784-80.055,25.784l-21.4,3.225L193.741,107.313s-35,4.448-37.512,5.414-62.264,15.858-62.264,15.858-64.734,17.522-62.008,80.253c-.2,0-.237,38.582,29.3,51.887,15.77,5.815,32.187,3.235,32.187,3.235l4.723-.058c.274-.046.55-.093.825-.142a.751.751,0,0,0-.019.132l36.337-.449v40.37H98.99v.17s-2.737.3-7.293.3C72.667,304.281,21.812,299.114,5.326,245.653Z" transform="translate(310.014 675.431)" fill="url(#linear-gradient)"/>
      <g id="Group_16" data-name="Group 16" transform="translate(597.969 257.938)">
        <path id="Path_103" data-name="Path 103" d="M312.27,116.37H571.056v41.311H312.27Z" transform="translate(-115.568 -66.897)" fill="#263e68"/>
        <path id="Path_104" data-name="Path 104" d="M502.86,169.07h29.8V469.156h-29.8Z" transform="translate(-110.545 -65.508)" fill="#263e68"/>
        <path id="Path_105" data-name="Path 105" d="M444.57,169.07h47.06V469.156H444.57Z" transform="translate(-112.081 -65.508)" fill="#4276c2"/>
        <path id="Path_106" data-name="Path 106" d="M312.27,169.07H435.279V469.156H312.27Z" transform="translate(-115.568 -65.508)" fill="#4276c2"/>
        <path id="Path_107" data-name="Path 107" d="M302.723,324.242v-28.49H190.07v39.639l35.506-30.177a6.385,6.385,0,1,1,8.271,9.73l-43.772,37.209V465.827h18.807l57.733-51.2a6.386,6.386,0,1,1,8.471,9.558l-46.96,41.643h74.6V340.5l-87.469,68.947a6.387,6.387,0,1,1-7.91-10.031Z" transform="translate(-118.789 -62.169)" fill="#d8dfe9"/>
        <path id="Path_108" data-name="Path 108" d="M120.62,473.89H591.482v18.418H120.62Z" transform="translate(-120.62 -57.474)" fill="#263e68"/>
        <path id="Path_109" data-name="Path 109" d="M215.59,165.834v26.7h15.993v-26.7a6.386,6.386,0,0,1,6.388-6.387h26.7V143.455h-26.7a6.386,6.386,0,0,1-6.387-6.388V110.375H215.59v26.693a6.386,6.386,0,0,1-6.388,6.387H182.5v15.993h26.7a6.391,6.391,0,0,1,6.387,6.386Z" transform="translate(-118.988 -67.055)" fill="#c31e1e"/>
        <path id="Path_110" data-name="Path 110" d="M178.484,295.364a6.386,6.386,0,0,1,6.388-6.387H303.908V68.167H145.223V471.813h33.252Zm-7.77-128.418V138.181a6.386,6.386,0,0,1,6.388-6.387h26.7V105.1a6.386,6.386,0,0,1,6.388-6.387h28.765a6.386,6.386,0,0,1,6.387,6.388v26.692h26.7a6.386,6.386,0,0,1,6.387,6.388v28.765a6.386,6.386,0,0,1-6.388,6.387h-26.7v26.7a6.386,6.386,0,0,1-6.388,6.387H210.185a6.386,6.386,0,0,1-6.387-6.388v-26.7H177.1a6.388,6.388,0,0,1-6.386-6.386Z" transform="translate(-119.971 -68.167)" fill="#263e68"/>
      </g>
      <g id="Group_15" data-name="Group 15" transform="translate(204.55 503.613)">
        <path id="Path_101" data-name="Path 101" d="M450.518,118.161A105.641,105.641,0,1,1,323.431,39.618a105.641,105.641,0,0,1,127.087,78.543" transform="translate(-131.674 -36.769)" fill="#f8dcb7"/>
        <path id="Path_102" data-name="Path 102" d="M477.853,266.581a51.49,51.49,0,0,0-25.794-7.3c-13.243-.279-26,5.242-35.788,14.169-19.529,17.8-35.166,30.164-70.965,30.164-35.815,0-52.063-12.708-70.679-30.016-8.556-7.956-19.4-13.431-31.059-14.2a52.411,52.411,0,0,0-30.81,7.188c-27.645,16.883-83.482,68.84-83.482,213.1,0,5.689.088,11.175.249,16.5A22.151,22.151,0,0,0,151.709,517.6H538.9a22.148,22.148,0,0,0,22.186-21.41c.157-5.329.249-10.82.249-16.508,0-144.254-55.837-196.215-83.482-213.1ZM468.211,425.1H441.587v26.62H407.354V425.1H380.73V390.863h26.624V364.238h34.233v26.624h26.624Z" transform="translate(-129.275 -41.502)" fill="#263e68"/>
      </g>
    </g>
  </g>
</svg>
