<svg id="criss-cross_2_" data-name="criss-cross (2)" xmlns="http://www.w3.org/2000/svg" width="20.037" height="20.037" viewBox="0 0 20.037 20.037">
  <defs>
    <style>
      .cls-1 {
        fill: #f5f7f9;
      }

      .cls-2 {
        fill: #8794aa;
      }
    </style>
  </defs>
  <path id="Path_71966" data-name="Path 71966" class="cls-1" d="M10.018,0A10.018,10.018,0,1,0,20.037,10.018,10.03,10.03,0,0,0,10.018,0Zm0,0"/>
  <path id="Path_71967" data-name="Path 71967" class="cls-2" d="M163.095,161.914a.835.835,0,1,1-1.181,1.181l-2.509-2.509-2.509,2.509a.835.835,0,0,1-1.181-1.181l2.509-2.509-2.509-2.509a.835.835,0,0,1,1.181-1.181l2.509,2.509,2.509-2.509a.835.835,0,0,1,1.181,1.181l-2.509,2.509Zm0,0" transform="translate(-149.387 -149.387)"/>
</svg>
