<svg xmlns="http://www.w3.org/2000/svg" width="154.113" height="169.822" viewBox="0 0 154.113 169.822">
  <g id="Group_15" data-name="Group 15" transform="translate(-0.001)">
    <path id="Path_101" data-name="Path 101" d="M316.4,65.8a37.682,37.682,0,1,1-45.331-28.016A37.682,37.682,0,0,1,316.4,65.8" transform="translate(-202.671 -36.769)" fill="#f8dcb7"/>
    <path id="Path_102" data-name="Path 102" d="M253.612,261.859a18.366,18.366,0,0,0-9.2-2.6,18.575,18.575,0,0,0-12.765,5.054c-6.966,6.349-12.544,10.759-25.313,10.759s-18.571-4.533-25.211-10.707a18.241,18.241,0,0,0-11.079-5.065,18.7,18.7,0,0,0-10.99,2.564c-9.861,6.022-29.778,24.555-29.778,76.012,0,2.029.031,3.986.089,5.885a7.9,7.9,0,0,0,7.913,7.638H275.387a7.9,7.9,0,0,0,7.914-7.637c.056-1.9.089-3.859.089-5.888,0-51.455-19.917-69.989-29.778-76.012ZM250.172,318.4h-9.5v9.5H228.465v-9.5h-9.5V306.19h9.5v-9.5h12.211v9.5h9.5Z" transform="translate(-129.275 -181.575)" fill="#263e68"/>
  </g>
</svg>
